# xmcd
#
# Track frame offsets: 
#        150
#        12131
#        28279
#        46517
#        60326
#        79672
#        93008
#        105823
#        120590
#        135088
#
# Disc length: 2073 seconds
#
# Revision: 0
# Processed by: cddbd v1.5.2PL0 Copyright (c) Steve Scherf et al.
# Submitted via: ExactAudioCopyFreeDBPlugin 1.0
#
DISCID=5d08170a
DTITLE=C.C. Wilson - Blues as a Second Language
DYEAR=2014
DGENRE=Blues
TTITLE0=Baby Ruth
TTITLE1=It's Not Much
TTITLE2=The Cost of Lovin' You
TTITLE3=Yellow Dog - Easy Rider
TTITLE4=Paint You
TTITLE5=Behave
TTITLE6=Iko, Iko
TTITLE7=Share Some Regrets With Me
TTITLE8=Workin' on It
TTITLE9=Tombstone Blues
EXTD=
EXTT0=
EXTT1=
EXTT2=
EXTT3=
EXTT4=
EXTT5=
EXTT6=
EXTT7=
EXTT8=
EXTT9=
PLAYORDER=
